<svg width="14" height="14" viewBox="0 0 14 14" fill="none" xmlns="http://www.w3.org/2000/svg">
<path d="M1.05273 9.36133C1.34961 9.36133 1.54883 9.32227 1.65039 9.24414C1.80664 9.12305 1.94336 8.92188 2.06055 8.64062H2.05469L4.98438 1.03516C5.20312 1.03516 5.41406 1.00195 5.61719 0.935547C5.82031 0.869141 5.94727 0.818359 5.99805 0.783203L8.70508 8.03711C8.91602 8.65039 9.14844 9.05859 9.40234 9.26172C9.48047 9.32422 9.55273 9.35547 9.61914 9.35547C9.81445 9.35547 9.9707 9.31836 10.0879 9.24414L9.95898 10H6.47266L6.56055 9.35547C7.2207 9.36719 7.57812 9.24219 7.63281 8.98047C7.65234 8.90234 7.65234 8.81641 7.63281 8.72266L6.88281 6.73633H3.75391L3.00391 8.88086C2.92969 9.06055 2.97266 9.20312 3.13281 9.30859C3.17578 9.33984 3.25586 9.35547 3.37305 9.35547C3.49414 9.35547 3.59766 9.35156 3.68359 9.34375C3.89453 9.33203 4.05078 9.30664 4.15234 9.26758L4.05859 10H0.976562L1.05273 9.36133ZM6.61328 6.01562L5.26562 2.43555L4.00586 6.01562H6.61328ZM12.6016 1.76172C12.4922 1.80469 12.373 1.82617 12.2441 1.82617C12.1152 1.82617 11.9941 1.80469 11.8809 1.76172C11.7676 1.71484 11.668 1.65234 11.582 1.57422C11.4062 1.41016 11.3184 1.23242 11.3184 1.04102C11.3184 0.845703 11.3418 0.691406 11.3887 0.578125C11.4355 0.464844 11.5 0.367188 11.582 0.285156C11.7656 0.109375 11.9883 0.0214844 12.25 0.0214844C12.5039 0.0214844 12.7148 0.109375 12.8828 0.285156C13.0547 0.460938 13.1406 0.681641 13.1406 0.947266C13.1406 1.3418 12.9609 1.61328 12.6016 1.76172ZM12.8066 5.91016L12.8711 9.39648C12.8789 10.3691 12.6211 11.1914 12.0977 11.8633C11.7148 12.3516 11.209 12.7461 10.5801 13.0469L10.1641 12.6895C11.0156 11.9902 11.5039 11.0156 11.6289 9.76562C11.6641 9.38672 11.6816 9.07812 11.6816 8.83984V7.1582L11.6758 5.06641C11.6758 4.66016 11.5801 4.375 11.3887 4.21094C11.209 4.05469 10.8984 3.97656 10.457 3.97656L10.5508 3.23828L13.0293 2.91016C12.8809 3.28906 12.8066 4.28906 12.8066 5.91016Z" fill="#D38BFC"/>
</svg>
